<svg width="125" height="28" viewBox="0 0 125 28" fill="none" xmlns="http://www.w3.org/2000/svg">
<path d="M96.0835 28L90.4308 17.7658H88.8433V28H82.2227V0.888916H93.3346C95.4769 0.888916 97.2967 1.26224 98.7937 2.00889C100.317 2.75554 101.452 3.7854 102.201 5.09847C102.949 6.3858 103.324 7.82761 103.324 9.42389C103.324 11.2262 102.807 12.8353 101.775 14.2514C100.768 15.6674 99.2713 16.6715 97.2838 17.2637L103.556 28H96.0835ZM88.8433 13.0928H92.9474C94.1605 13.0928 95.064 12.7967 95.6576 12.2045C96.2771 11.6123 96.5868 10.7756 96.5868 9.69423C96.5868 8.66437 96.2771 7.85336 95.6576 7.26119C95.064 6.66901 94.1605 6.37293 92.9474 6.37293H88.8433V13.0928Z" fill="#FFFFEE"/>
<path d="M13.333 28L13.333 11.1111L19.5552 11.1111L19.5552 28L13.333 28Z" fill="#FFFFEE"/>
<path d="M106.223 2.22217H124.889V8.44439H106.223V2.22217Z" fill="#FFFFEE"/>
<path d="M106.223 12H124.889V18.2222H106.223V12Z" fill="#FFFFEE"/>
<path d="M106.223 21.7777H124.889V27.9999H106.223V21.7777Z" fill="#FFFFEE"/>
<path fill-rule="evenodd" clip-rule="evenodd" d="M65.5565 28C73.0431 28 79.1121 21.931 79.1121 14.4445C79.1121 6.95794 73.0431 0.888916 65.5565 0.888916C58.07 0.888916 52.001 6.95794 52.001 14.4445C52.001 21.931 58.07 28 65.5565 28ZM65.5565 21.4635C61.68 21.4635 58.5375 18.321 58.5375 14.4445C58.5375 10.568 61.68 7.42547 65.5565 7.42547C69.433 7.42547 72.5755 10.568 72.5755 14.4445C72.5755 18.321 69.433 21.4635 65.5565 21.4635Z" fill="#FFFFEE"/>
<path d="M67.5566 14.4445C67.5566 15.549 66.6612 16.4445 65.5566 16.4445C64.4521 16.4445 63.5566 15.549 63.5566 14.4445C63.5566 13.3399 64.4521 12.4445 65.5566 12.4445C66.6612 12.4445 67.5566 13.3399 67.5566 14.4445Z" fill="#FFFFEE"/>
<path fill-rule="evenodd" clip-rule="evenodd" d="M36.6669 7.42544C35.2787 7.42544 33.9216 7.83709 32.7673 8.60835C31.6131 9.37961 30.7134 10.4758 30.1822 11.7584C29.6509 13.0409 29.5119 14.4522 29.7828 15.8138C30.0536 17.1753 30.7221 18.426 31.7037 19.4076C32.6853 20.3892 33.936 21.0577 35.2976 21.3286C36.6591 21.5994 38.0704 21.4604 39.3529 20.9291C40.6355 20.3979 41.7317 19.4983 42.503 18.344C43.2742 17.1897 43.6859 15.8327 43.6859 14.4444L50.2224 14.4444C50.2224 16.6168 49.7005 18.7497 48.71 20.6667C48.4781 21.1155 48.2205 21.5526 47.9379 21.9755C46.4484 24.2047 44.3313 25.9421 41.8544 26.9681C39.3774 27.9941 36.6519 28.2626 34.0223 27.7395C31.3928 27.2165 28.9774 25.9254 27.0817 24.0297C25.1859 22.1339 23.8948 19.7185 23.3718 17.089C22.8488 14.4595 23.1172 11.7339 24.1432 9.25695C25.1692 6.78 26.9066 4.66291 29.1358 3.17341C29.5588 2.89081 29.9958 2.63321 30.4447 2.40129C32.3617 1.41085 34.4945 0.888881 36.6669 0.888881L36.6669 7.42544Z" fill="#FFFFEE"/>
<path d="M38.667 14.4445C38.667 15.549 37.7716 16.4445 36.667 16.4445C35.5624 16.4445 34.667 15.549 34.667 14.4445C34.667 13.3399 35.5624 12.4445 36.667 12.4445C37.7716 12.4445 38.667 13.3399 38.667 14.4445Z" fill="#FFFFEE"/>
<path d="M20.4443 4C20.4443 6.20914 18.6535 8 16.4443 8C14.2352 8 12.4443 6.20914 12.4443 4C12.4443 1.79086 14.2352 0 16.4443 0C18.6535 0 20.4443 1.79086 20.4443 4Z" fill="#FFFFEE"/>
<path d="M12.4444 4.00003C12.4444 5.71825 11.0515 7.11114 9.33328 7.11114C7.61506 7.11114 6.22217 5.71825 6.22217 4.00003C6.22217 2.28181 7.61506 0.888916 9.33328 0.888916C11.0515 0.888916 12.4444 2.28181 12.4444 4.00003Z" fill="#A7E7A7"/>
<path opacity="0.3" d="M6.22222 4.00003C6.22222 5.71825 4.82933 7.11114 3.11111 7.11114C1.39289 7.11114 0 5.71825 0 4.00003C0 2.28181 1.39289 0.888916 3.11111 0.888916C4.82933 0.888916 6.22222 2.28181 6.22222 4.00003Z" fill="#A7E7A7"/>
</svg>
